<svg xmlns="http://www.w3.org/2000/svg" width="119.89" height="80.205" viewBox="0 0 119.89 80.205">
  <g id="Group_714" data-name="Group 714" transform="translate(-118.146 -208.085)" opacity="0.998">
    <g id="Group_66" data-name="Group 66" transform="translate(118.146 208.085)">
      <rect id="Rectangle_92" data-name="Rectangle 92" width="1.349" height="1.346" transform="translate(70.626 1.452)" fill="#fff"/>
      <rect id="Rectangle_93" data-name="Rectangle 93" width="1.349" height="1.346" transform="translate(98.663 18.184)" fill="#fff"/>
      <path id="Path_4773" data-name="Path 4773" d="M470.647,233.553a1.972,1.972,0,0,0,.8-.681,2.922,2.922,0,0,0,.43-1.076,7.286,7.286,0,0,0,.126-1.421v-9.419h-1.348v9.419a6.707,6.707,0,0,1-.059.967,1.8,1.8,0,0,1-.2.639.852.852,0,0,1-.388.353,1.561,1.561,0,0,1-.632.109,2.051,2.051,0,0,1-.691-.1l-.354,1.295a4.138,4.138,0,0,0,1.1.152A2.843,2.843,0,0,0,470.647,233.553Z" transform="translate(-355.595 -216.812)" fill="#fff"/>
      <path id="Path_4774" data-name="Path 4774" d="M454.908,209.845h-1.851v-.311a.625.625,0,0,1,.109-.394.544.544,0,0,1,.416-.117h.926v-.937h-.951a1.637,1.637,0,0,0-1.189.4,1.76,1.76,0,0,0-.413,1.295v1.1h2.953Z" transform="translate(-344.492 -208.085)" fill="#fff"/>
      <rect id="Rectangle_94" data-name="Rectangle 94" width="1.349" height="1.346" transform="translate(95.966 18.184)" fill="#fff"/>
      <rect id="Rectangle_95" data-name="Rectangle 95" width="1.349" height="1.346" transform="translate(73.323 1.452)" fill="#fff"/>
      <path id="Path_4775" data-name="Path 4775" d="M438.762,229.021a5.319,5.319,0,0,0,1.778.807,8.52,8.52,0,0,0,2.14.26h.356l.453-.949v1.336a1.771,1.771,0,0,1-.607,1.514,2.8,2.8,0,0,1-1.7.454,4.868,4.868,0,0,1-1.12-.118,6.518,6.518,0,0,1-1.138-.4l-.421,1.295a12.307,12.307,0,0,0,1.373.428,5.169,5.169,0,0,0,1.2.143,3.821,3.821,0,0,0,2.865-.933,3.489,3.489,0,0,0,.893-2.515v-9.385H442.68a6.959,6.959,0,0,0-2.275.353,5.5,5.5,0,0,0-1.761.967,4.321,4.321,0,0,0-1.138,1.463,4.233,4.233,0,0,0-.4,1.842,4.337,4.337,0,0,0,.447,2.043A3.932,3.932,0,0,0,438.762,229.021Zm0-4.768a3.3,3.3,0,0,1,.825-1.034,3.838,3.838,0,0,1,1.171-.665,4.035,4.035,0,0,1,1.322-.233v0h2.178l-.77.384v6.042h-1.366a4.675,4.675,0,0,1-1.424-.211,3.568,3.568,0,0,1-1.172-.614,2.842,2.842,0,0,1-.792-.992,3.03,3.03,0,0,1-.287-1.346A2.855,2.855,0,0,1,438.762,224.253Z" transform="translate(-334.421 -216.812)" fill="#fff"/>
      <path id="Path_4776" data-name="Path 4776" d="M325.55,233.6h2.8v-1.007c.027.047.054.1.084.14a1.972,1.972,0,0,0,.8.682,2.84,2.84,0,0,0,1.222.236h24.58v-12.7H353.69v11.35H330.508a1.556,1.556,0,0,1-.632-.109.85.85,0,0,1-.388-.353,1.815,1.815,0,0,1-.2-.639,6.723,6.723,0,0,1-.059-.967v-9.281h-3.643a6.2,6.2,0,0,0-6.265,6.323v.035A6.142,6.142,0,0,0,325.55,233.6Zm-4.8-6.358a4.807,4.807,0,0,1,4.8-5.013H328.7l-.826.411v7.595a7.234,7.234,0,0,0,.127,1.421,3.25,3.25,0,0,0,.209.669h-2.63a4.865,4.865,0,0,1-4.83-5.048Z" transform="translate(-254.556 -216.812)" fill="#fff"/>
      <path id="Path_4777" data-name="Path 4777" d="M278.758,230.23l.587,1.55-8.562-10.87h-1.338v12.635h1.393v-9.523l-.793-1.842,8.966,11.365h1.14V220.911h-1.392Z" transform="translate(-220.738 -216.782)" fill="#fff"/>
      <path id="Path_4778" data-name="Path 4778" d="M326.845,296.554l7.772-7.406v-5.084h-20.77v5.785H324.5l3.951-2.538-9.861,9.9,1.054,4.3h2.81c3.777,0,6.016,1.4,6.016,3.9v.087c0,2.279-1.8,3.725-4.347,3.725-3.118,0-5.313-1.314-7.421-3.682l-4.655,4.427a14.926,14.926,0,0,0,11.987,5.3c6.851,0,11.066-4.251,11.066-10.036v-.088C335.1,299.446,331.017,297.256,326.845,296.554Z" transform="translate(-249.625 -259.604)" fill="#fff"/>
      <path id="Path_4779" data-name="Path 4779" d="M228.55,220.239a6.407,6.407,0,0,0-6.474,6.534v.036a6.456,6.456,0,1,0,12.912-.036v-.037A6.347,6.347,0,0,0,228.55,220.239Zm4.954,6.57a4.967,4.967,0,0,1-4.954,5.18,5.027,5.027,0,0,1-4.991-5.216v-.037a4.967,4.967,0,0,1,4.955-5.179,5.027,5.027,0,0,1,4.991,5.216Z" transform="translate(-188.618 -216.326)" fill="#fff"/>
      <path id="Path_4780" data-name="Path 4780" d="M405.453,282.429c-9.484,0-16.379,7.144-16.379,15.865v.088c0,8.722,6.806,15.778,16.291,15.778s16.379-7.144,16.379-15.866v-.088C421.744,289.485,414.938,282.429,405.453,282.429Zm9.222,15.953c0,5.259-3.777,9.554-9.222,9.554a9.329,9.329,0,0,1-9.309-9.642v-.088c0-5.259,3.777-9.554,9.221-9.554a9.329,9.329,0,0,1,9.31,9.641Z" transform="translate(-301.854 -258.495)" fill="#fff"/>
      <rect id="Rectangle_96" data-name="Rectangle 96" width="1.428" height="12.634" transform="translate(29.565 4.129)" fill="#fff"/>
      <path id="Path_4781" data-name="Path 4781" d="M125.349,310.312l1.305-1.006,6.718-5.175c5.444-4.207,8.079-6.749,8.079-11.877v-.087c0-5.742-4.215-9.467-10.582-9.467-5.489,0-8.431,2.235-11.461,6.356l4.742,3.812c2.283-2.8,3.908-4.119,6.28-4.119,2.415,0,4.128,1.4,4.128,3.988,0,2.541-1.493,4.207-5.313,7.363l-10.232,8.371v5.347h22.747v-5.83H130.038Z" transform="translate(-118.733 -258.679)" fill="#fff"/>
      <path id="Path_4782" data-name="Path 4782" d="M124.856,233.635l5.443-12.725h-1.536l-4.3,10.357.138,1.388-.356-.862-3.724-9-.778-1.882h-1.592l5.443,12.725Z" transform="translate(-118.147 -216.782)" fill="#fff"/>
      <rect id="Rectangle_97" data-name="Rectangle 97" width="1.428" height="12.634" transform="translate(14.093 4.13)" fill="#fff"/>
      <path id="Path_4783" data-name="Path 4783" d="M178.544,226.162c-2.785-.6-3.436-1.264-3.436-2.454v-.036c0-1.137,1.049-2.039,2.695-2.039A5.567,5.567,0,0,1,181.456,223l.831-1.1a6.611,6.611,0,0,0-4.448-1.553c-2.405,0-4.159,1.462-4.159,3.448v.036c0,2.076,1.338,3.014,4.249,3.646,2.658.56,3.291,1.227,3.291,2.4v.036c0,1.246-1.121,2.147-2.82,2.147a6.035,6.035,0,0,1-4.341-1.786l-.886,1.047a7.412,7.412,0,0,0,5.171,2.021c2.514,0,4.322-1.408,4.322-3.574v-.036C182.666,227.8,181.365,226.776,178.544,226.162Z" transform="translate(-155.458 -216.402)" fill="#fff"/>
    </g>
    <path id="Path_4784" data-name="Path 4784" d="M243.6,276.161l1.557,1.491-1.494,1.553-1.556-1.491Z" transform="translate(-84.051 -46.16)" fill="#fff"/>
    <path id="Path_4785" data-name="Path 4785" d="M257.81,277.714l1.556,1.491,1.494-1.553-1.556-1.491Z" transform="translate(-94.702 -46.16)" fill="#fff"/>
    <path id="Path_4786" data-name="Path 4786" d="M251,284.521l1.213,1.161,1.162-1.21-1.212-1.161Z" transform="translate(-90.085 -51.009)" fill="#fff"/>
    <path id="Path_4787" data-name="Path 4787" d="M264.805,286.583l1.212,1.161,1.162-1.21-1.212-1.161Z" transform="translate(-99.445 -52.407)" fill="#fff"/>
    <path id="Path_4788" data-name="Path 4788" d="M244.844,290.265l1.212,1.161,1.163-1.21-1.211-1.161Z" transform="translate(-85.91 -54.904)" fill="#fff"/>
    <path id="Path_4789" data-name="Path 4789" d="M257.477,290.7l1.211,1.161,1.163-1.21-1.212-1.161Z" transform="translate(-94.476 -55.2)" fill="#fff"/>
    <path id="Path_4790" data-name="Path 4790" d="M252.537,295.78l.853.817.818-.851-.853-.817Z" transform="translate(-91.126 -58.886)" fill="#fff"/>
    <path id="Path_4791" data-name="Path 4791" d="M262.526,297.774l.853.817.819-.851-.853-.816Z" transform="translate(-97.9 -60.238)" fill="#fff"/>
    <rect id="Rectangle_98" data-name="Rectangle 98" width="2.689" height="2.684" transform="matrix(0.984, -0.18, 0.18, 0.984, 171.651, 231.063)" fill="#fff"/>
    <rect id="Rectangle_99" data-name="Rectangle 99" width="2.157" height="2.154" transform="translate(168.199 232.167) rotate(-10.377)" fill="#fff"/>
    <rect id="Rectangle_100" data-name="Rectangle 100" width="2.157" height="2.153" transform="translate(172.3 235.121) rotate(-10.392)" fill="#fff"/>
    <rect id="Rectangle_101" data-name="Rectangle 101" width="1.68" height="1.676" transform="matrix(0.984, -0.18, 0.18, 0.984, 169.375, 235.429)" fill="#fff"/>
    <rect id="Rectangle_102" data-name="Rectangle 102" width="1.679" height="1.676" transform="matrix(0.984, -0.18, 0.18, 0.984, 172.589, 238.562)" fill="#fff"/>
    <rect id="Rectangle_103" data-name="Rectangle 103" width="1.68" height="1.677" transform="matrix(0.984, -0.18, 0.18, 0.984, 166.899, 236.1)" fill="#fff"/>
    <rect id="Rectangle_104" data-name="Rectangle 104" width="1.679" height="1.676" transform="matrix(0.984, -0.18, 0.18, 0.984, 169.898, 238.26)" fill="#fff"/>
    <rect id="Rectangle_105" data-name="Rectangle 105" width="1.182" height="1.18" transform="translate(167.793 238.46) rotate(-10.388)" fill="#fff"/>
    <rect id="Rectangle_106" data-name="Rectangle 106" width="1.181" height="1.179" transform="translate(170.025 240.858) rotate(-10.359)" fill="#fff"/>
    <path id="Path_4792" data-name="Path 4792" d="M306.344,306.321l-1.156,2.424,2.429,1.153,1.155-2.423Z" transform="translate(-126.828 -66.611)" fill="#fff"/>
    <path id="Path_4793" data-name="Path 4793" d="M296.118,302.843l-.927,1.944,1.948.925.927-1.944Z" transform="translate(-120.049 -64.253)" fill="#fff"/>
    <path id="Path_4794" data-name="Path 4794" d="M301.07,317.72l-.927,1.945,1.949.924.927-1.944Z" transform="translate(-123.407 -74.34)" fill="#fff"/>
    <path id="Path_4795" data-name="Path 4795" d="M293.573,313.191l-.721,1.514,1.517.72.722-1.514Z" transform="translate(-118.463 -71.269)" fill="#fff"/>
    <path id="Path_4796" data-name="Path 4796" d="M295.964,326.915l-.722,1.514,1.517.72.723-1.514Z" transform="translate(-120.084 -80.575)" fill="#fff"/>
    <path id="Path_4797" data-name="Path 4797" d="M286.114,310.391l-.722,1.514,1.517.72.722-1.514Z" transform="translate(-113.404 -69.37)" fill="#fff"/>
    <path id="Path_4798" data-name="Path 4798" d="M289.737,321.272l-.722,1.514,1.517.72.723-1.514Z" transform="translate(-115.861 -76.749)" fill="#fff"/>
    <path id="Path_4799" data-name="Path 4799" d="M284.52,317.956l-.508,1.065,1.067.506.508-1.065Z" transform="translate(-112.469 -74.5)" fill="#fff"/>
    <rect id="Rectangle_107" data-name="Rectangle 107" width="1.18" height="1.181" transform="matrix(0.43, -0.903, 0.903, 0.43, 171.948, 247.769)" fill="#fff"/>
    <path id="Path_4800" data-name="Path 4800" d="M307.877,342.374l-2.358,1.291,1.294,2.353,2.358-1.291Z" transform="translate(-127.052 -91.057)" fill="#fff"/>
    <path id="Path_4801" data-name="Path 4801" d="M302.216,333.3l-1.891,1.036,1.037,1.888,1.891-1.036Z" transform="translate(-123.53 -84.905)" fill="#fff"/>
    <path id="Path_4802" data-name="Path 4802" d="M297.51,348.257l-1.892,1.036,1.038,1.888,1.891-1.036Z" transform="translate(-120.339 -95.047)" fill="#fff"/>
    <path id="Path_4803" data-name="Path 4803" d="M294.617,339.953l-1.472.807.807,1.469,1.474-.806Z" transform="translate(-118.661 -89.416)" fill="#fff"/>
    <path id="Path_4804" data-name="Path 4804" d="M288.511,352.479l-1.473.807.808,1.469,1.473-.806Z" transform="translate(-114.52 -97.909)" fill="#fff"/>
    <path id="Path_4805" data-name="Path 4805" d="M290.209,333.326l-1.473.806.808,1.471,1.474-.807Z" transform="translate(-115.672 -84.922)" fill="#fff"/>
    <path id="Path_4806" data-name="Path 4806" d="M286.768,344.266l-1.473.807.808,1.469,1.473-.806Z" transform="translate(-113.339 -92.341)" fill="#fff"/>
    <path id="Path_4807" data-name="Path 4807" d="M285.035,338.268l-1.036.567.569,1.034,1.036-.567Z" transform="translate(-112.46 -88.273)" fill="#fff"/>
    <path id="Path_4808" data-name="Path 4808" d="M280.139,347.184l-1.036.567.568,1.034,1.036-.567Z" transform="translate(-109.14 -94.319)" fill="#fff"/>
    <rect id="Rectangle_108" data-name="Rectangle 108" width="2.684" height="2.689" transform="matrix(0.123, -0.992, 0.992, 0.123, 172.083, 263.827)" fill="#fff"/>
    <rect id="Rectangle_109" data-name="Rectangle 109" width="2.153" height="2.157" transform="matrix(0.123, -0.992, 0.992, 0.123, 172.654, 259.747)" fill="#fff"/>
    <rect id="Rectangle_110" data-name="Rectangle 110" width="2.154" height="2.157" transform="matrix(0.123, -0.992, 0.992, 0.123, 168.603, 262.767)" fill="#fff"/>
    <rect id="Rectangle_111" data-name="Rectangle 111" width="1.677" height="1.68" transform="translate(169.717 259.476) rotate(-82.955)" fill="#fff"/>
    <rect id="Rectangle_112" data-name="Rectangle 112" width="1.677" height="1.68" transform="translate(165.759 261.598) rotate(-82.955)" fill="#fff"/>
    <rect id="Rectangle_113" data-name="Rectangle 113" width="1.677" height="1.68" transform="translate(169.817 256.917) rotate(-82.937)" fill="#fff"/>
    <rect id="Rectangle_114" data-name="Rectangle 114" width="1.677" height="1.68" transform="translate(166.854 259.126) rotate(-82.937)" fill="#fff"/>
    <rect id="Rectangle_115" data-name="Rectangle 115" width="1.179" height="1.181" transform="matrix(0.123, -0.992, 0.992, 0.123, 167.85, 256.629)" fill="#fff"/>
    <rect id="Rectangle_116" data-name="Rectangle 116" width="1.179" height="1.182" transform="matrix(0.123, -0.992, 0.992, 0.123, 164.888, 258.036)" fill="#fff"/>
    <path id="Path_4809" data-name="Path 4809" d="M254,385.355l-1.971-1.826L250.2,385.5l1.971,1.826Z" transform="translate(-89.544 -118.963)" fill="#fff"/>
    <path id="Path_4810" data-name="Path 4810" d="M252.875,268.573l-1.971-1.826-1.83,1.967,1.971,1.826Z" transform="translate(-88.779 -39.777)" fill="#fff"/>
    <path id="Path_4811" data-name="Path 4811" d="M262.119,376.963l-1.581-1.465-1.468,1.578,1.581,1.465Z" transform="translate(-95.557 -113.517)" fill="#fff"/>
    <path id="Path_4812" data-name="Path 4812" d="M246.413,377.223l-1.582-1.465-1.468,1.578,1.581,1.465Z" transform="translate(-84.906 -113.694)" fill="#fff"/>
    <path id="Path_4813" data-name="Path 4813" d="M254.54,371.711l-1.231-1.141-1.143,1.228,1.231,1.141Z" transform="translate(-90.875 -110.176)" fill="#fff"/>
    <path id="Path_4814" data-name="Path 4814" d="M240.706,369.877l-1.231-1.141-1.143,1.228,1.231,1.141Z" transform="translate(-81.495 -108.933)" fill="#fff"/>
    <path id="Path_4815" data-name="Path 4815" d="M259.451,365.448l-1.231-1.141-1.143,1.228,1.231,1.141Z" transform="translate(-94.205 -105.929)" fill="#fff"/>
    <path id="Path_4816" data-name="Path 4816" d="M247.964,365.637l-1.231-1.141-1.143,1.228,1.231,1.141Z" transform="translate(-86.416 -106.058)" fill="#fff"/>
    <path id="Path_4817" data-name="Path 4817" d="M254.314,361.946l-.866-.8-.8.865.866.8Z" transform="translate(-91.199 -103.784)" fill="#fff"/>
    <path id="Path_4818" data-name="Path 4818" d="M244.292,360.12l-.866-.8-.8.864.866.8Z" transform="translate(-84.403 -102.546)" fill="#fff"/>
    <rect id="Rectangle_117" data-name="Rectangle 117" width="2.689" height="2.684" transform="matrix(0.981, -0.197, 0.197, 0.981, 149.808, 262.058)" fill="#fff"/>
    <rect id="Rectangle_118" data-name="Rectangle 118" width="2.157" height="2.153" transform="translate(153.868 261.312) rotate(-11.326)" fill="#fff"/>
    <rect id="Rectangle_119" data-name="Rectangle 119" width="2.157" height="2.153" transform="translate(149.718 258.427) rotate(-11.342)" fill="#fff"/>
    <rect id="Rectangle_120" data-name="Rectangle 120" width="1.68" height="1.677" transform="translate(153.2 258.444) rotate(-11.326)" fill="#fff"/>
    <rect id="Rectangle_121" data-name="Rectangle 121" width="1.68" height="1.677" transform="translate(155.664 257.732) rotate(-11.326)" fill="#fff"/>
    <rect id="Rectangle_122" data-name="Rectangle 122" width="1.68" height="1.677" transform="translate(152.629 255.622) rotate(-11.326)" fill="#fff"/>
    <rect id="Rectangle_123" data-name="Rectangle 123" width="1.182" height="1.179" transform="translate(155.317 255.777) rotate(-11.317)" fill="#fff"/>
    <rect id="Rectangle_124" data-name="Rectangle 124" width="1.181" height="1.179" transform="translate(153.045 253.417) rotate(-11.345)" fill="#fff"/>
    <path id="Path_4819" data-name="Path 4819" d="M196.3,348.331l1.115-2.442-2.448-1.113-1.115,2.442Z" transform="translate(-51.333 -92.686)" fill="#fff"/>
    <path id="Path_4820" data-name="Path 4820" d="M208.081,353.114l.894-1.959-1.963-.892-.895,1.959Z" transform="translate(-59.651 -96.406)" fill="#fff"/>
    <path id="Path_4821" data-name="Path 4821" d="M202.881,338.318l.895-1.959-1.964-.893-.894,1.96Z" transform="translate(-56.125 -86.373)" fill="#fff"/>
    <rect id="Rectangle_125" data-name="Rectangle 125" width="1.677" height="1.679" transform="translate(147.805 252.665) rotate(-65.484)" fill="#fff"/>
    <path id="Path_4822" data-name="Path 4822" d="M218.156,355.9l.7-1.526-1.529-.695-.7,1.526Z" transform="translate(-66.777 -98.722)" fill="#fff"/>
    <rect id="Rectangle_126" data-name="Rectangle 126" width="1.677" height="1.679" transform="translate(146.962 248.26) rotate(-65.476)" fill="#fff"/>
    <rect id="Rectangle_127" data-name="Rectangle 127" width="1.677" height="1.679" transform="translate(150.221 253.527) rotate(-65.476)" fill="#fff"/>
    <rect id="Rectangle_128" data-name="Rectangle 128" width="1.677" height="1.679" transform="translate(148.996 250.043) rotate(-65.457)" fill="#fff"/>
    <path id="Path_4823" data-name="Path 4823" d="M222.179,340.511l.49-1.073-1.075-.489-.49,1.074Z" transform="translate(-69.812 -88.735)" fill="#fff"/>
    <path id="Path_4824" data-name="Path 4824" d="M220.757,330.443l.49-1.074-1.075-.489-.49,1.074Z" transform="translate(-68.848 -81.908)" fill="#fff"/>
    <path id="Path_4825" data-name="Path 4825" d="M193.983,312.128l2.336-1.329-1.333-2.332L192.65,309.8Z" transform="translate(-50.519 -68.066)" fill="#fff"/>
    <path id="Path_4826" data-name="Path 4826" d="M201.332,322.615l1.874-1.066-1.069-1.871-1.874,1.067Z" transform="translate(-55.681 -75.668)" fill="#fff"/>
    <path id="Path_4827" data-name="Path 4827" d="M205.788,307.581l1.874-1.066-1.069-1.871-1.874,1.067Z" transform="translate(-58.703 -65.473)" fill="#fff"/>
    <path id="Path_4828" data-name="Path 4828" d="M210.2,317.193l1.459-.831-.832-1.456-1.459.83Z" transform="translate(-61.854 -72.432)" fill="#fff"/>
    <path id="Path_4829" data-name="Path 4829" d="M216.1,304.568l1.459-.831-.832-1.456-1.459.83Z" transform="translate(-65.853 -63.872)" fill="#fff"/>
    <path id="Path_4830" data-name="Path 4830" d="M214.715,323.745l1.46-.83-.832-1.457-1.46.831Z" transform="translate(-64.916 -76.875)" fill="#fff"/>
    <path id="Path_4831" data-name="Path 4831" d="M217.975,312.75l1.459-.83-.832-1.457-1.459.831Z" transform="translate(-67.127 -69.419)" fill="#fff"/>
    <path id="Path_4832" data-name="Path 4832" d="M221.246,320.133l1.027-.584-.585-1.024-1.027.584Z" transform="translate(-69.512 -74.885)" fill="#fff"/>
    <path id="Path_4833" data-name="Path 4833" d="M225.994,311.137l1.027-.584-.585-1.024-1.027.584Z" transform="translate(-72.731 -68.786)" fill="#fff"/>
    <rect id="Rectangle_129" data-name="Rectangle 129" width="2.684" height="2.689" transform="translate(149.037 233.792) rotate(-83.898)" fill="#fff"/>
    <rect id="Rectangle_130" data-name="Rectangle 130" width="2.153" height="2.158" transform="matrix(0.106, -0.994, 0.994, 0.106, 149.119, 237.409)" fill="#fff"/>
    <rect id="Rectangle_131" data-name="Rectangle 131" width="2.153" height="2.158" transform="matrix(0.106, -0.994, 0.994, 0.106, 153.119, 234.322)" fill="#fff"/>
    <rect id="Rectangle_132" data-name="Rectangle 132" width="1.677" height="1.68" transform="translate(152.586 237.209) rotate(-83.889)" fill="#fff"/>
    <rect id="Rectangle_133" data-name="Rectangle 133" width="1.676" height="1.68" transform="translate(156.508 235.022) rotate(-83.908)" fill="#fff"/>
    <rect id="Rectangle_134" data-name="Rectangle 134" width="1.677" height="1.68" transform="translate(152.528 239.769) rotate(-83.887)" fill="#fff"/>
    <rect id="Rectangle_135" data-name="Rectangle 135" width="1.677" height="1.68" transform="translate(155.454 237.511) rotate(-83.887)" fill="#fff"/>
    <rect id="Rectangle_136" data-name="Rectangle 136" width="1.179" height="1.182" transform="translate(155.049 239.583) rotate(-83.892)" fill="#fff"/>
    <rect id="Rectangle_137" data-name="Rectangle 137" width="1.179" height="1.182" transform="translate(157.987 238.127) rotate(-83.928)" fill="#fff"/>
    <path id="Path_4834" data-name="Path 4834" d="M245.271,314.674a5.508,5.508,0,0,0-1.067-.461,6.349,6.349,0,0,0-2.933-.214,7.087,7.087,0,0,0-1.269.327l-.127.045a6.975,6.975,0,0,0-.673.3q-.287.146-.573.318a13.664,13.664,0,0,0-1.278.877,27.4,27.4,0,0,1-.132-6.821.01.01,0,0,1,.016-.007c1.013.637.729,2.419.517,2.928,0,.01.011.017.018.009a3.142,3.142,0,0,0,.387-3.555c-.006-.01.007-.019.016-.012a2.879,2.879,0,0,1,.457.466,2.769,2.769,0,0,1,.573,1.513,4.517,4.517,0,0,1,0,.684c0,.053-.008.1-.012.152,0,.008.006.01.012.008s.005,0,.007,0a2.918,2.918,0,0,0-.007-2.663,3.334,3.334,0,0,0-.573-.784c-.071-.073-.147-.146-.228-.218a.01.01,0,0,1,.008-.017,2.2,2.2,0,0,1,.22.065,2.156,2.156,0,0,1,.573.3,2.38,2.38,0,0,1,.8,1.077,2.718,2.718,0,0,1,.185.984.01.01,0,0,0,.019,0,2.45,2.45,0,0,0-.2-2.012,2.371,2.371,0,0,0-.8-.772,2.572,2.572,0,0,0-.573-.256,1.667,1.667,0,0,0-.274-.061c-.012,0-.009-.018,0-.02q.141-.013.272-.014a2.811,2.811,0,0,1,.573.046,2.085,2.085,0,0,1,.8.317,1.67,1.67,0,0,1,.537.573c0,.01.02,0,.019-.007a1.608,1.608,0,0,0-.555-1.079,2.06,2.06,0,0,0-.8-.42,2.292,2.292,0,0,0-.573-.082,1.8,1.8,0,0,0-.716.128c-.008,0-.017-.007-.012-.015a1.352,1.352,0,0,1,.728-.514,1.645,1.645,0,0,1,.573-.068,1.276,1.276,0,0,1,.47.11.01.01,0,0,0,.011-.016,1.794,1.794,0,0,0-.481-.39,1.536,1.536,0,0,0-.573-.187,1.437,1.437,0,0,0-1.38.684.01.01,0,0,1-.017,0c-.067-.119-.131-.251-.191-.389a4.6,4.6,0,0,1-.313-1.042.009.009,0,1,0-.017,0,4.636,4.636,0,0,1-.315,1.047c-.06.137-.123.267-.189.384a.01.01,0,0,1-.016,0,1.478,1.478,0,0,0-2.434-.108.01.01,0,0,0,.011.016,1.506,1.506,0,0,1,1.77.472.01.01,0,0,1-.012.015,2.106,2.106,0,0,0-2.272.562,1.6,1.6,0,0,0-.372.891c0,.011.014.017.02.007a1.569,1.569,0,0,1,.352-.432,2.32,2.32,0,0,1,1.828-.49c.012,0,.014.019,0,.02a2.419,2.419,0,0,0-1.831,1.464,2.623,2.623,0,0,0-.021,1.637.01.01,0,0,0,.019,0c0-.014,0-.03,0-.045a2.424,2.424,0,0,1,1.776-2.382.01.01,0,0,1,.009.017,2.966,2.966,0,0,0-.809,3.665.01.01,0,0,0,.019,0,3.009,3.009,0,0,1,1.019-2.814c.008-.007.022,0,.016.012a3.144,3.144,0,0,0,.387,3.555c.007.008.023,0,.018-.009-.212-.509-.5-2.291.517-2.928a.01.01,0,0,1,.016.007,27.336,27.336,0,0,1-.132,6.821,10.368,10.368,0,0,0-2.525-1.494c-.1-.039-.208-.075-.31-.108a6.67,6.67,0,0,0-2.385-.339,6.164,6.164,0,0,0-2.461.622c-.1.048-.176.092-.239.128a.024.024,0,0,0,.02.043c.074-.023.146-.043.219-.064a6.808,6.808,0,0,1,2.461-.241,7.341,7.341,0,0,1,2.385.642,12.623,12.623,0,0,1,2.838,1.848,31.1,31.1,0,0,1-2.838,2.426l-.091.05a.664.664,0,0,0-1.183.234.641.641,0,0,0,.129.573.954.954,0,0,0,1.145.167,15.858,15.858,0,0,0,3.142-2.616c.106-.1.213-.2.323-.292q.164.145.322.291c.577.527,1.1,1.042,1.588,1.48.2.18.39.347.573.5a5.031,5.031,0,0,0,.8.554,1.037,1.037,0,0,0,1.269-.028.564.564,0,0,0,.189-.625.669.669,0,0,0-.5-.492.664.664,0,0,0-.686.258,2.411,2.411,0,0,1-.274-.167,9.4,9.4,0,0,1-.8-.645c-.18-.158-.372-.331-.573-.513-.393-.357-.824-.752-1.282-1.151a15.86,15.86,0,0,1,1.282-.969q.281-.19.573-.365c.259-.154.526-.3.8-.428a8.16,8.16,0,0,1,1.269-.486,6.709,6.709,0,0,1,2.933-.182,7.368,7.368,0,0,1,1.045.246.024.024,0,0,0,.021-.043" transform="translate(-74.595 -65.361)" fill="#fff"/>
    <g id="Group_67" data-name="Group 67" transform="translate(118.146 270.724)">
      <rect id="Rectangle_138" data-name="Rectangle 138" width="0.793" height="0.791" transform="translate(6.244 7.823)" fill="#fff"/>
      <path id="Path_4835" data-name="Path 4835" d="M278.057,413.113v-5.227h-.772v4.456h-2.913v-4.456H273.6v4.456h-3.067v-4.456h-1.215a4.125,4.125,0,0,0-1.312.2,3.027,3.027,0,0,0-1,.549,2.443,2.443,0,0,0-.642.833,2.411,2.411,0,0,0-.227,1.039,2.471,2.471,0,0,0,.261,1.174,2.349,2.349,0,0,0,.694.809,3,3,0,0,0,1.012.471,4.679,4.679,0,0,0,1.216.154Zm-9.873-.895a2.021,2.021,0,0,1-.665-.361,1.688,1.688,0,0,1-.448-.578,1.769,1.769,0,0,1-.164-.775,1.609,1.609,0,0,1,.179-.756,1.907,1.907,0,0,1,.472-.587,2.129,2.129,0,0,1,.67-.375,2.355,2.355,0,0,1,.771-.13h.763v3.687H269A2.6,2.6,0,0,1,268.185,412.218Z" transform="translate(-218.493 -406.203)" fill="#fff"/>
      <rect id="Rectangle_139" data-name="Rectangle 139" width="0.772" height="6.91" transform="translate(43.059)" fill="#fff"/>
      <rect id="Rectangle_140" data-name="Rectangle 140" width="0.793" height="0.791" transform="translate(51.245)" fill="#fff"/>
      <rect id="Rectangle_141" data-name="Rectangle 141" width="0.793" height="0.791" transform="translate(58.782 7.814)" fill="#fff"/>
      <rect id="Rectangle_142" data-name="Rectangle 142" width="0.793" height="0.791" transform="translate(7.595 7.823)" fill="#fff"/>
      <path id="Path_4836" data-name="Path 4836" d="M189.636,408.8h-1.263a2.4,2.4,0,0,1-1.062-.192,1.426,1.426,0,0,1-.608-.578,3.3,3.3,0,0,0,.068-.722v-2.484H186v2.609a1.537,1.537,0,0,1-.357,1.064,1.375,1.375,0,0,1-1.08.4,1.731,1.731,0,0,1-.617-.106,1.514,1.514,0,0,1-.483-.289,1.354,1.354,0,0,1-.318-.428,1.318,1.318,0,0,1-.125-.525v-2.725h-.772v2.667a1.515,1.515,0,0,1-.106.6,1.109,1.109,0,0,1-.289.4,1.148,1.148,0,0,1-.415.231,1.634,1.634,0,0,1-.492.072H179.45v-3.976h-.772V408.8h-4.051l1.35-3.225a6.871,6.871,0,0,0-.656-.506,5.794,5.794,0,0,0-.714-.414,4.208,4.208,0,0,0-.743-.279,2.856,2.856,0,0,0-.742-.1,2.894,2.894,0,0,0-.752.1,4.594,4.594,0,0,0-.748.274,4.733,4.733,0,0,0-.714.414,6.718,6.718,0,0,0-.642.51l1.36,3.225h-2.672v-4.456h-1.234a4,4,0,0,0-1.3.2,3.15,3.15,0,0,0-1.008.554,2.457,2.457,0,0,0-.651.837,2.415,2.415,0,0,0-.232,1.054,2.483,2.483,0,0,0,.256,1.17,2.246,2.246,0,0,0,.695.8,3.031,3.031,0,0,0,1.018.462,4.879,4.879,0,0,0,1.225.149h.463v.222a1.014,1.014,0,0,1-.347.866,1.6,1.6,0,0,1-.974.26,2.8,2.8,0,0,1-.642-.067,3.77,3.77,0,0,1-.651-.231l-.241.741a7,7,0,0,0,.786.245,2.964,2.964,0,0,0,.69.082,2.188,2.188,0,0,0,1.64-.534,2,2,0,0,0,.511-1.44v-.144h11.989a2.044,2.044,0,0,0,1-.241,1.981,1.981,0,0,0,.709-.645,1.959,1.959,0,0,0,.762.722,2.393,2.393,0,0,0,1.148.26,2.643,2.643,0,0,0,1.182-.241,1.648,1.648,0,0,0,.747-.741,2.113,2.113,0,0,0,.236.323,1.373,1.373,0,0,0,.362.284,2.128,2.128,0,0,0,.536.2,2.909,2.909,0,0,0,.555.068v.009h2.228v-6.91h-.772Zm-21.451,0H167.4a2.7,2.7,0,0,1-.815-.12,2.051,2.051,0,0,1-.671-.352,1.626,1.626,0,0,1-.453-.568,1.738,1.738,0,0,1-.164-.77,1.638,1.638,0,0,1,.178-.761,1.879,1.879,0,0,1,.473-.592,2.2,2.2,0,0,1,.67-.38,2.306,2.306,0,0,1,.782-.135h.781Zm4.254,0-1.206-2.955a3.064,3.064,0,0,1,.912-.549,2.784,2.784,0,0,1,.979-.173,2.729,2.729,0,0,1,1.032.207,3.077,3.077,0,0,1,.868.515l-1.206,2.955Z" transform="translate(-149.596 -402.659)" fill="#fff"/>
      <rect id="Rectangle_143" data-name="Rectangle 143" width="0.793" height="0.791" transform="translate(3.602)" fill="#fff"/>
      <rect id="Rectangle_144" data-name="Rectangle 144" width="0.793" height="0.791" transform="translate(81.649)" fill="#fff"/>
      <rect id="Rectangle_145" data-name="Rectangle 145" width="0.772" height="6.91" transform="translate(74.814)" fill="#fff"/>
      <rect id="Rectangle_146" data-name="Rectangle 146" width="0.793" height="0.791" transform="translate(49.893)" fill="#fff"/>
      <path id="Path_4837" data-name="Path 4837" d="M151.479,410.081a2.864,2.864,0,0,0-.121-.848,1.765,1.765,0,0,0-.371-.674,2.077,2.077,0,0,0-.69-.506,2.3,2.3,0,0,0-.931-.168H148.8v.77h.675a1.214,1.214,0,0,1,.531.12,1.247,1.247,0,0,1,.415.313,1.174,1.174,0,0,1,.227.443,2.329,2.329,0,0,1,.063.578v2.233H147.09v.77h4.389Z" transform="translate(-137.772 -406.203)" fill="#fff"/>
      <rect id="Rectangle_147" data-name="Rectangle 147" width="0.772" height="6.91" transform="translate(115.637)" fill="#fff"/>
      <rect id="Rectangle_148" data-name="Rectangle 148" width="0.793" height="0.791" transform="translate(83)" fill="#fff"/>
      <path id="Path_4838" data-name="Path 4838" d="M398.769,402.659H398V408.8h-2.652a2.708,2.708,0,0,0,.241-1.136,2.846,2.846,0,0,0-.217-1.112,2.72,2.72,0,0,0-1.486-1.483,2.863,2.863,0,0,0-1.114-.216,2.649,2.649,0,0,0-1.08.221,2.757,2.757,0,0,0-1.456,1.492,2.822,2.822,0,0,0-.213,1.1,2.729,2.729,0,0,0,.063.592,3.315,3.315,0,0,0,.168.544H387.86a2.708,2.708,0,0,0,.241-1.136,2.839,2.839,0,0,0-.217-1.112,2.721,2.721,0,0,0-1.485-1.483,2.866,2.866,0,0,0-1.115-.216,2.648,2.648,0,0,0-1.08.221,2.761,2.761,0,0,0-1.457,1.492,2.833,2.833,0,0,0-.212,1.1,2.729,2.729,0,0,0,.063.592,3.315,3.315,0,0,0,.168.544h-2.45v-6.139h-.772V408.8h-2.459v-1.179a3.013,3.013,0,0,0-.116-.843,1.7,1.7,0,0,0-.367-.678,1.93,1.93,0,0,0-.675-.5,2.412,2.412,0,0,0-.955-.163h-3.414l1.453-2.775h-.839l-1.482,2.765a1.694,1.694,0,0,0,.121.433,1.356,1.356,0,0,0,.226.346h3.935a1.626,1.626,0,0,1,.632.111,1.105,1.105,0,0,1,.429.3,1.026,1.026,0,0,1,.222.443,2.455,2.455,0,0,1,.058.558V408.8h-7.138v-4.456h-1.216a4.124,4.124,0,0,0-1.312.2,3.022,3.022,0,0,0-1,.549,2.443,2.443,0,0,0-.642.833,2.41,2.41,0,0,0-.226,1.039,2.471,2.471,0,0,0,.26,1.174,2.351,2.351,0,0,0,.7.809,2.994,2.994,0,0,0,1.012.471,4.678,4.678,0,0,0,1.215.154h15.307a2.774,2.774,0,0,0,.892.64,2.673,2.673,0,0,0,1.123.236,2.878,2.878,0,0,0,1.153-.231,2.712,2.712,0,0,0,.921-.645h3.4a2.777,2.777,0,0,0,.893.64,2.669,2.669,0,0,0,1.123.236,2.877,2.877,0,0,0,1.153-.231,2.721,2.721,0,0,0,.921-.645h3.925ZM368.4,408.8h-.762a2.6,2.6,0,0,1-.815-.125,2.021,2.021,0,0,1-.665-.361,1.687,1.687,0,0,1-.448-.578,1.76,1.76,0,0,1-.165-.775,1.609,1.609,0,0,1,.178-.756,1.923,1.923,0,0,1,.473-.587,2.128,2.128,0,0,1,.67-.375,2.356,2.356,0,0,1,.772-.13h.762Zm18.765-.341a1.945,1.945,0,0,1-1.08,1.059,2.155,2.155,0,0,1-.806.149,1.936,1.936,0,0,1-.786-.159,1.966,1.966,0,0,1-.627-.433,2.005,2.005,0,0,1-.415-.64,2.051,2.051,0,0,1-.149-.78,2.09,2.09,0,0,1,.149-.785,2.031,2.031,0,0,1,.411-.645,1.932,1.932,0,0,1,.621-.438,1.907,1.907,0,0,1,.8-.164,2.122,2.122,0,0,1,.816.153,2.028,2.028,0,0,1,.646.424,1.923,1.923,0,0,1,.43.64,2.1,2.1,0,0,1,.154.814A2.01,2.01,0,0,1,387.17,408.457Zm7.485,0a1.945,1.945,0,0,1-1.08,1.059,2.152,2.152,0,0,1-.805.149,1.94,1.94,0,0,1-.786-.159,1.965,1.965,0,0,1-.627-.433,2,2,0,0,1-.414-.64,2.039,2.039,0,0,1-.15-.78,2.078,2.078,0,0,1,.15-.785,2.019,2.019,0,0,1,.41-.645,1.934,1.934,0,0,1,.622-.438,1.9,1.9,0,0,1,.8-.164,2.121,2.121,0,0,1,.815.153,2.038,2.038,0,0,1,.646.424,1.925,1.925,0,0,1,.429.64,2.09,2.09,0,0,1,.155.814A2.01,2.01,0,0,1,394.655,408.457Z" transform="translate(-285.38 -402.659)" fill="#fff"/>
      <path id="Path_4839" data-name="Path 4839" d="M120.114,412.959a4.679,4.679,0,0,0,1.215.154h5.055v-5.227h-.772v4.456h-3.068v-4.456h-1.216a4.127,4.127,0,0,0-1.312.2,3.033,3.033,0,0,0-1,.549,2.446,2.446,0,0,0-.642.833,2.411,2.411,0,0,0-.227,1.039,2.467,2.467,0,0,0,.261,1.174,2.344,2.344,0,0,0,.694.809A3,3,0,0,0,120.114,412.959Zm-1.2-2.455a1.613,1.613,0,0,1,.179-.756,1.927,1.927,0,0,1,.473-.587,2.13,2.13,0,0,1,.671-.375,2.354,2.354,0,0,1,.772-.13h.762v3.687h-.762a2.6,2.6,0,0,1-.815-.125,2.016,2.016,0,0,1-.666-.361,1.7,1.7,0,0,1-.448-.578A1.774,1.774,0,0,1,118.918,410.5Z" transform="translate(-118.146 -406.203)" fill="#fff"/>
      <rect id="Rectangle_149" data-name="Rectangle 149" width="0.793" height="0.791" transform="translate(55.961 7.823)" fill="#fff"/>
      <rect id="Rectangle_150" data-name="Rectangle 150" width="0.793" height="0.791" transform="translate(54.609 7.823)" fill="#fff"/>
      <path id="Path_4840" data-name="Path 4840" d="M308.226,410.546a4.158,4.158,0,0,0,.073-.814v-.164h9.925v-6.91h-.772V408.8h-3.279l1.35-3.225a6.866,6.866,0,0,0-.655-.506,5.8,5.8,0,0,0-.714-.414,4.208,4.208,0,0,0-.743-.279,2.853,2.853,0,0,0-.742-.1,2.9,2.9,0,0,0-.753.1,4.558,4.558,0,0,0-.747.274,4.7,4.7,0,0,0-.714.414,6.8,6.8,0,0,0-.642.51l1.36,3.225H308.3v-4.456h-.772v5.391a3.9,3.9,0,0,1-.033.554,1.028,1.028,0,0,1-.116.365.48.48,0,0,1-.222.2.893.893,0,0,1-.362.063,1.584,1.584,0,0,1-.184-.01,1.5,1.5,0,0,1-.211-.048l-.2.742a2.368,2.368,0,0,0,.626.086,1.621,1.621,0,0,0,.7-.135,1.127,1.127,0,0,0,.458-.39A1.664,1.664,0,0,0,308.226,410.546Zm2.551-4.7a3.064,3.064,0,0,1,.912-.549,2.784,2.784,0,0,1,.979-.173,2.724,2.724,0,0,1,1.032.207,3.09,3.09,0,0,1,.869.515l-1.206,2.955h-1.379Z" transform="translate(-245.657 -402.659)" fill="#fff"/>
      <rect id="Rectangle_151" data-name="Rectangle 151" width="0.793" height="0.791" transform="translate(2.251)" fill="#fff"/>
      <path id="Path_4841" data-name="Path 4841" d="M125.273,439.842h-1.189l-2.622,2.766v-2.766h-.969v5.5h.969v-1.6l.859-.88,1.882,2.475h1.173l-2.393-3.135Z" transform="translate(-119.738 -427.872)" fill="#fff"/>
      <rect id="Rectangle_152" data-name="Rectangle 152" width="0.969" height="5.501" transform="translate(6.521 11.971)" fill="#fff"/>
      <path id="Path_4842" data-name="Path 4842" d="M149.892,443.646l-2.952-3.8h-.9v5.5h.953V441.43l3.039,3.913h.811v-5.5h-.953Z" transform="translate(-137.061 -427.872)" fill="#fff"/>
      <path id="Path_4843" data-name="Path 4843" d="M167.5,442.912h1.409v1.03a2.252,2.252,0,0,1-1.331.417,1.838,1.838,0,0,1-1.873-1.964v-.016a1.861,1.861,0,0,1,1.787-1.941,2.162,2.162,0,0,1,1.543.589l.614-.731a2.98,2.98,0,0,0-2.118-.747,2.806,2.806,0,0,0-2.842,2.845v.016a2.732,2.732,0,0,0,2.858,2.829,3.516,3.516,0,0,0,2.3-.857v-2.31H167.5Z" transform="translate(-149.703 -427.672)" fill="#fff"/>
      <path id="Path_4844" data-name="Path 4844" d="M186.916,439.843h-2.055v5.5h2.055a2.757,2.757,0,0,0,2.929-2.751v-.015A2.745,2.745,0,0,0,186.916,439.843Zm1.913,2.766a1.794,1.794,0,0,1-1.913,1.854H185.83v-3.741h1.086a1.806,1.806,0,0,1,1.913,1.87Z" transform="translate(-163.383 -427.872)" fill="#fff"/>
      <path id="Path_4845" data-name="Path 4845" d="M206.049,439.548a2.822,2.822,0,0,0-2.889,2.845v.016a2.882,2.882,0,0,0,5.764-.016v-.016A2.8,2.8,0,0,0,206.049,439.548Zm1.859,2.861a1.86,1.86,0,0,1-1.859,1.941,1.886,1.886,0,0,1-1.874-1.957v-.016a1.86,1.86,0,0,1,1.858-1.941,1.886,1.886,0,0,1,1.874,1.956Z" transform="translate(-175.791 -427.672)" fill="#fff"/>
      <path id="Path_4846" data-name="Path 4846" d="M227.509,442.444l-1.677-2.6H224.8v5.5h.953v-3.929l1.724,2.578h.031l1.74-2.593v3.945h.969v-5.5h-1.031Z" transform="translate(-190.465 -427.872)" fill="#fff"/>
      <path id="Path_4847" data-name="Path 4847" d="M255.505,439.548a2.822,2.822,0,0,0-2.889,2.845v.016a2.882,2.882,0,0,0,5.764-.016v-.016A2.8,2.8,0,0,0,255.505,439.548Zm1.859,2.861a1.86,1.86,0,0,1-1.859,1.941,1.886,1.886,0,0,1-1.874-1.957v-.016a1.86,1.86,0,0,1,1.858-1.941,1.886,1.886,0,0,1,1.874,1.956Z" transform="translate(-209.326 -427.672)" fill="#fff"/>
      <path id="Path_4848" data-name="Path 4848" d="M274.258,445.343h.969V443.1h2.779v-.88h-2.779v-1.5h3.133v-.88h-4.1Z" transform="translate(-224.001 -427.872)" fill="#fff"/>
      <path id="Path_4849" data-name="Path 4849" d="M298.991,441.987c-1.055-.251-1.307-.44-1.307-.864v-.016c0-.362.33-.653.9-.653a2.507,2.507,0,0,1,1.5.566l.52-.73a3.059,3.059,0,0,0-2-.692,1.685,1.685,0,0,0-1.883,1.595v.016c0,1.014.662,1.36,1.835,1.642,1.023.236,1.244.448,1.244.842v.015c0,.417-.378.692-.976.692a2.539,2.539,0,0,1-1.74-.715l-.582.692a3.4,3.4,0,0,0,2.3.88c1.158,0,1.969-.613,1.969-1.643V443.6C300.763,442.687,300.156,442.271,298.991,441.987Z" transform="translate(-239.079 -427.707)" fill="#fff"/>
      <path id="Path_4850" data-name="Path 4850" d="M313.862,439.72l-2.425,5.54h.993l.566-1.328H315.6l.559,1.328h1.023l-2.425-5.54Zm-.512,3.356.945-2.2.953,2.2Z" transform="translate(-249.211 -427.789)" fill="#fff"/>
      <path id="Path_4851" data-name="Path 4851" d="M334.809,443.008c0,1.014-.528,1.532-1.386,1.532s-1.393-.55-1.393-1.571v-3.128h-.968v3.167a2.17,2.17,0,0,0,2.346,2.42,2.2,2.2,0,0,0,2.37-2.468v-3.12h-.968Z" transform="translate(-262.517 -427.871)" fill="#fff"/>
      <path id="Path_4852" data-name="Path 4852" d="M352.168,439.843h-2.055v5.5h2.055a2.757,2.757,0,0,0,2.929-2.751v-.015A2.745,2.745,0,0,0,352.168,439.843Zm1.913,2.766a1.794,1.794,0,0,1-1.913,1.854h-1.086v-3.741h1.086a1.806,1.806,0,0,1,1.913,1.87Z" transform="translate(-275.436 -427.872)" fill="#fff"/>
      <rect id="Rectangle_153" data-name="Rectangle 153" width="0.969" height="5.501" transform="translate(80.888 11.971)" fill="#fff"/>
      <path id="Path_4853" data-name="Path 4853" d="M385.285,439.72l-2.425,5.54h.993l.566-1.328h2.607l.559,1.328h1.023l-2.425-5.54Zm-.512,3.356.945-2.2.953,2.2Z" transform="translate(-297.641 -427.789)" fill="#fff"/>
      <path id="Path_4854" data-name="Path 4854" d="M408.061,441.6v-.016a1.663,1.663,0,0,0-.456-1.187,2.225,2.225,0,0,0-1.591-.55h-2.456v5.5h.968v-1.918h1.212l1.354,1.918h1.142l-1.488-2.082A1.652,1.652,0,0,0,408.061,441.6Zm-3.535.974v-1.847h1.409c.717,0,1.142.323,1.142.912v.015c0,.559-.441.92-1.134.92Z" transform="translate(-311.675 -427.872)" fill="#fff"/>
      <path id="Path_4855" data-name="Path 4855" d="M422.723,439.72l-2.425,5.54h.993l.566-1.328h2.606l.559,1.328h1.024l-2.425-5.54Zm-.512,3.356.945-2.2.953,2.2Z" transform="translate(-323.026 -427.789)" fill="#fff"/>
      <path id="Path_4856" data-name="Path 4856" d="M444.49,442.482a1.31,1.31,0,0,0,.787-1.226v-.016a1.232,1.232,0,0,0-.37-.911,1.992,1.992,0,0,0-1.441-.488h-2.472v5.5h2.551c1.228,0,2.039-.526,2.039-1.509v-.016A1.349,1.349,0,0,0,444.49,442.482Zm-2.543-1.784h1.393c.623,0,.969.267.969.7v.016c0,.5-.418.747-1.039.747h-1.323Zm2.668,3.033c0,.495-.4.755-1.063.755h-1.606v-1.509h1.535c.764,0,1.133.276,1.133.739Z" transform="translate(-337.06 -427.872)" fill="#fff"/>
      <rect id="Rectangle_154" data-name="Rectangle 154" width="0.969" height="5.501" transform="translate(109.724 11.971)" fill="#fff"/>
      <path id="Path_4857" data-name="Path 4857" d="M468.18,439.72h-.9l-2.425,5.54h.993l.566-1.328h2.606l.559,1.328h1.024Zm-1.409,3.356.945-2.2.953,2.2Z" transform="translate(-353.24 -427.789)" fill="#fff"/>
    </g>
  </g>
</svg>
