<svg xmlns="http://www.w3.org/2000/svg" width="19.142" height="19.17" viewBox="0 0 19.142 19.17">
  <g id="Group_724" data-name="Group 724" transform="translate(-422.475 -266.416)">
    <path id="Path_5083" data-name="Path 5083" d="M428.164,288.651c-.018-.065-.04-.129-.062-.192l-5.411,1.436a2.127,2.127,0,0,0,.528,1.257c.327.207.77.043,1.119-.039a23.779,23.779,0,0,0,3.6-1.037C428.6,289.728,428.32,289.211,428.164,288.651Z" transform="translate(-0.17 -17.371)" fill="#6477aa"/>
    <path id="Path_5084" data-name="Path 5084" d="M441.466,270.121c-.153-.478-.2-.877-.7-1.175a17.668,17.668,0,0,0-8.693-2.528,16.649,16.649,0,0,0-9.026,2.747c-.312.22-.408.793-.477,1.161a8.929,8.929,0,0,0-.094,1.514l5.273-1.4a.781.781,0,0,1,.02-.235.6.6,0,0,1,.4-.467,15.515,15.515,0,0,1,8.26-.007.569.569,0,0,1,.475.447,1.379,1.379,0,0,1-.091.434l4.774,1.382A4.944,4.944,0,0,0,441.466,270.121Z" fill="#6477aa"/>
    <path id="Path_5085" data-name="Path 5085" d="M488.037,290.329a.711.711,0,0,0,.582.781,35.846,35.846,0,0,0,3.49.958c.28,0,.7.072.854-.446a6.7,6.7,0,0,0,.246-.928l-4.925-1.425C488.184,289.683,488.136,289.855,488.037,290.329Z" transform="translate(-51.658 -18.009)" fill="#6477aa"/>
    <path id="Path_5086" data-name="Path 5086" d="M442.432,287.064l-.033-1.824c-.115-1.638-6.176-1.475-6.114.082l-.021,1.742c0,.473-4.71.693-4.708,9.831,0,.6.783,1.084,1.753,1.09v.3a1.223,1.223,0,1,0,2.446,0v-.3h7.215v.3a1.223,1.223,0,1,0,2.446,0v-.3c.957-.015,1.726-.5,1.725-1.089C447.127,287.951,442.432,287.537,442.432,287.064Zm-3.107,9.806a4.535,4.535,0,1,1,4.235-2.908l-.26-.144a1.147,1.147,0,0,0-.118-.053.86.86,0,0,0-1.1.284.888.888,0,0,0,.452,1.159l.207.115A4.524,4.524,0,0,1,439.325,296.87Z" transform="translate(-7.157 -13.921)" fill="#6477aa"/>
    <path id="Path_5087" data-name="Path 5087" d="M459.251,311.644a2.41,2.41,0,1,0,2.41,2.41A2.41,2.41,0,0,0,459.251,311.644Z" transform="translate(-27.082 -35.642)" fill="#6477aa"/>
  </g>
</svg>
